<?xml version="1.0" encoding="UTF-8" standalone="no"?>
<svg width="42px" height="21px" viewBox="125 130 42 21" version="1.1" xmlns="http://www.w3.org/2000/svg">
  <defs>
    <path d="M132.291538,135.9 C130.971538,135.9 129.741538,136.32 128.811538,137.13 L128.811538,130.8 L125.211538,130.8 L125.211538,150 L128.811538,150 L128.811538,142.2 C128.811538,139.77 130.221538,139.2 131.481538,139.2 C132.591538,139.2 133.311538,139.77 133.311538,141.15 L133.311538,150 L136.911538,150 L136.911538,140.85 C136.911538,137.46 134.991538,135.9 132.291538,135.9 L132.291538,135.9 Z M150.503846,136.2 L146.903846,136.2 L146.903846,144 C146.903846,146.43 145.493846,147 144.233846,147 C143.123846,147 142.403846,146.43 142.403846,145.05 L142.403846,136.2 L138.803846,136.2 L138.803846,145.35 C138.803846,148.74 140.723846,150.3 143.423846,150.3 C144.893846,150.3 146.273846,149.76 147.263846,148.74 L147.503846,150 L150.503846,150 L150.503846,136.2 Z M155.846154,143.7 L164.246154,143.7 L164.246154,141.45 C164.246154,138.03 162.326154,135.9 158.246154,135.9 C154.166154,135.9 152.246154,138.03 152.246154,141.6 L152.246154,144.6 C152.246154,148.17 154.166154,150.3 158.246154,150.3 C162.326154,150.3 164.246154,147.84 164.246154,145.74 L160.646154,145.74 C160.646154,146.55 159.716154,147.15 158.246154,147.15 C156.776154,147.15 155.846154,146.58 155.846154,145.05 L155.846154,143.7 Z M158.246154,139.05 C159.716154,139.05 160.646154,139.62 160.646154,141.15 L160.646154,141.57 L155.846154,141.57 L155.846154,141.15 C155.846154,139.62 156.776154,139.05 158.246154,139.05 L158.246154,139.05 Z" id="path-1"></path>
    <filter x="-50%" y="-50%" width="200%" height="200%" filterUnits="objectBoundingBox" id="filter-2">
      <feOffset dx="0" dy="1" in="SourceAlpha" result="shadowOffsetInner1"></feOffset>
      <feComposite in="shadowOffsetInner1" in2="SourceAlpha" operator="arithmetic" k2="-1" k3="1" result="shadowInnerInner1"></feComposite>
      <feColorMatrix values="0 0 0 0 0.889429209   0 0 0 0 0.889429209   0 0 0 0 0.889429209  0 0 0 1 0" type="matrix" in="shadowInnerInner1"></feColorMatrix>
    </filter>
  </defs>
  <g id="hue" stroke="none" fill="none">
    <use fill="#FFFFFF" fill-rule="evenodd" href="#path-1"></use>
    <use fill="black" fill-opacity="1" filter="url(#filter-2)" href="#path-1"></use>
  </g>
</svg>
